/* XPM */
static char * nexuiz_xpm[] = {
"48 48 223 2",
"  	c None",
". 	c #2D2D2D",
"+ 	c #2E2E2E",
"@ 	c #212121",
"# 	c #434343",
"$ 	c #565656",
"% 	c #646464",
"& 	c #717171",
"* 	c #7C7C7C",
"= 	c #838383",
"- 	c #888888",
"; 	c #898989",
"> 	c #848484",
", 	c #7D7D7D",
"' 	c #727272",
") 	c #626262",
"! 	c #525252",
"~ 	c #424242",
"{ 	c #252525",
"] 	c #222222",
"^ 	c #575757",
"/ 	c #5F5F5F",
"( 	c #444444",
"_ 	c #5E5E5E",
": 	c #828282",
"< 	c #9A9A9A",
"[ 	c #979797",
"} 	c #959595",
"| 	c #939393",
"1 	c #8D8D8D",
"2 	c #272727",
"3 	c #2C2C2C",
"4 	c #4F4F4F",
"5 	c #8E8E8E",
"6 	c #8A8A8A",
"7 	c #3E3E3E",
"8 	c #C6C6C6",
"9 	c #949494",
"0 	c #515151",
"a 	c #4A4A4A",
"b 	c #676767",
"c 	c #868686",
"d 	c #909090",
"e 	c #969696",
"f 	c #919191",
"g 	c #989898",
"h 	c #4C4C4C",
"i 	c #A4A4A4",
"j 	c #FFFFFF",
"k 	c #D5D5D5",
"l 	c #A0A0A0",
"m 	c #6B6B6B",
"n 	c #505050",
"o 	c #878787",
"p 	c #262626",
"q 	c #232323",
"r 	c #6A6A6A",
"s 	c #8F8F8F",
"t 	c #929292",
"u 	c #8B8B8B",
"v 	c #494949",
"w 	c #E4E4E4",
"x 	c #F7F7F7",
"y 	c #B7B7B7",
"z 	c #757575",
"A 	c #282828",
"B 	c #2A2A2A",
"C 	c #A3A3A3",
"D 	c #FDFDFD",
"E 	c #FAFAFA",
"F 	c #7B7B7B",
"G 	c #797979",
"H 	c #323232",
"I 	c #3A3A3A",
"J 	c #7E7E7E",
"K 	c #FBFBFB",
"L 	c #FCFCFC",
"M 	c #9D9D9D",
"N 	c #696969",
"O 	c #858585",
"P 	c #404040",
"Q 	c #808080",
"R 	c #666666",
"S 	c #616161",
"T 	c #454545",
"U 	c #383838",
"V 	c #656565",
"W 	c #393939",
"X 	c #464646",
"Y 	c #8C8C8C",
"Z 	c #242424",
"` 	c #777777",
" .	c #606060",
"..	c #AAAAAA",
"+.	c #F1F1F1",
"@.	c #BCBCBC",
"#.	c #F2F2F2",
"$.	c #F8F8F8",
"%.	c #B8B8B8",
"&.	c #6C6C6C",
"*.	c #818181",
"=.	c #292929",
"-.	c #4D4D4D",
";.	c #C8C8C8",
">.	c #F9F9F9",
",.	c #F4F4F4",
"'.	c #E8E8E8",
").	c #EAEAEA",
"!.	c #787878",
"~.	c #555555",
"{.	c #3D3D3D",
"].	c #3B3B3B",
"^.	c #6F6F6F",
"/.	c #DADADA",
"(.	c #414141",
"_.	c #4E4E4E",
":.	c #6D6D6D",
"<.	c #7F7F7F",
"[.	c #767676",
"}.	c #535353",
"|.	c #CCCCCC",
"1.	c #484848",
"2.	c #7A7A7A",
"3.	c #707070",
"4.	c #4B4B4B",
"5.	c #BABABA",
"6.	c #E2E2E2",
"7.	c #F6F6F6",
"8.	c #1B1B1B",
"9.	c #737373",
"0.	c #6E6E6E",
"a.	c #9F9F9F",
"b.	c #E3E3E3",
"c.	c #EDEDED",
"d.	c #F5F5F5",
"e.	c #EEEEEE",
"f.	c #DEDEDE",
"g.	c #E7E7E7",
"h.	c #2B2B2B",
"i.	c #474747",
"j.	c #5D5D5D",
"k.	c #C3C3C3",
"l.	c #DCDCDC",
"m.	c #F0F0F0",
"n.	c #F3F3F3",
"o.	c #D3D3D3",
"p.	c #BEBEBE",
"q.	c #D0D0D0",
"r.	c #D7D7D7",
"s.	c #595959",
"t.	c #E0E0E0",
"u.	c #ECECEC",
"v.	c #E1E1E1",
"w.	c #C7C7C7",
"x.	c #A6A6A6",
"y.	c #C0C0C0",
"z.	c #333333",
"A.	c #B1B1B1",
"B.	c #999999",
"C.	c #636363",
"D.	c #5A5A5A",
"E.	c #353535",
"F.	c #3C3C3C",
"G.	c #B2B2B2",
"H.	c #E6E6E6",
"I.	c #5B5B5B",
"J.	c #5C5C5C",
"K.	c #585858",
"L.	c #D1D1D1",
"M.	c #EFEFEF",
"N.	c #D4D4D4",
"O.	c #D9D9D9",
"P.	c #545454",
"Q.	c #B9B9B9",
"R.	c #3F3F3F",
"S.	c #B3B3B3",
"T.	c #A9A9A9",
"U.	c #343434",
"V.	c #C5C5C5",
"W.	c #AEAEAE",
"X.	c #EBEBEB",
"Y.	c #B6B6B6",
"Z.	c #303030",
"`.	c #E9E9E9",
" +	c #313131",
".+	c #DBDBDB",
"++	c #A5A5A5",
"@+	c #202020",
"#+	c #131313",
"$+	c #121212",
"%+	c #111111",
"&+	c #191919",
"*+	c #D6D6D6",
"=+	c #DDDDDD",
"-+	c #9E9E9E",
";+	c #E5E5E5",
">+	c #ACACAC",
",+	c #DFDFDF",
"'+	c #C4C4C4",
")+	c #CFCFCF",
"!+	c #CACACA",
"~+	c #BDBDBD",
"{+	c #A2A2A2",
"]+	c #AFAFAF",
"^+	c #A1A1A1",
"/+	c #CDCDCD",
"(+	c #A7A7A7",
"_+	c #363636",
":+	c #BFBFBF",
"<+	c #ABABAB",
"[+	c #BBBBBB",
"}+	c #C2C2C2",
"|+	c #FEFEFE",
"1+	c #1F1F1F",
"2+	c #B4B4B4",
"3+	c #D2D2D2",
"4+	c #9B9B9B",
"5+	c #D8D8D8",
"6+	c #373737",
"7+	c #B5B5B5",
"8+	c #9C9C9C",
"9+	c #747474",
"0+	c #2F2F2F",
"                                          . + + + + .                                           ",
"                                @ # $ % & * = - ; > , ' ) ! ~ {                                 ",
"                            ] ^ > / ( _ : < [ } } } } } } | 1 > _ 2                             ",
"                        3 4 5 [ 6 7 8 9 0 a b c d 9 | | | | | | e f ^ .                         ",
"                    @ a * g | | 9 h i j j k l m n o | | | | | | | | g = n p                     ",
"                  q r s t f f f t u v w j j j x y h 1 f f f f f f f f t d z A                   ",
"                B * | d d d d d d t ) C j D D D E F G d d d d d f f d d d t ; H                 ",
"              I J f 5 5 5 5 5 5 5 s F : K D D D L M ) t t | 1 F N % z ; | f d O P               ",
"            3 Q 1 1 1 1 1 1 1 1 1 5 ' 1 K K K K E | R J S T U $ 6 < V W X m Y f O H             ",
"          Z ` Y u u u u u u u u u 1  ...D K K K +., ( ! O @.#.j j j j $.%.&.X $ z *.=.          ",
"        ] V 6 o o o o o o o - 6 6 : -.;.K >.>.E ,.k '.j j j K >.>.>.>.E j j ).%.!.~.& 2         ",
"        T *.= = = = = > O > & ^ {.].^.).E >.>.>.>.E E >.>.>.>.>.>.>.>.>.>.>.E K /.(.> _.        ",
"      B :.<.J <.<.F [.V }.X $ d |.D j $.$.$.$.$.$.$.$.$.$.$.$.$.$.$.$.$.$.$.$.x y 1.: z 3       ",
"      T , G 2.3.! 4.N s 5.6.j j K x 7.x 7.7.7.7.7.7.7.7.7.7.x x >.$.7.7.7.7.x ,.f ^ F , }.8.    ",
"    q 9.[.[.0.a a.b.c.7.x 7.d.d.d.d.d.d.d.d.d.d.d.d.d.d.7.x 7.e.f.g.7.d.d.d.d.).0.b [.[.` h.    ",
"    i.9.& ' R j.k.l.m.n.,.,.,.,.,.,.,.,.,.,.,.,.,.#.m.g.o.p.C * n q.x ,.,.,.d.r.s.&.& & ' !     ",
"  ]  .&.&.&.&.s.( _ - y t.e.n.7.7.d.,.,.,.n.u.v.w.x.c N ^ a T _.+ u.d.,.,.,.d.y.1.N &.&.&.% A   ",
"  z.S b b b b b V / 4 T 1.& l w./.t.#.#.#.+.A.0 (.i.4 s.S % R S {.L #.#.#.n.+.B.X b b b b % U   ",
"  ]./  . . . . . . .S C.D.v I E.F.G.,.+.+.).F h S ) S S  . . .~.$ E +.+.+.#.H.:._.S  . . . .P   ",
"  P D.D.D.D.D.D.D.D.D.D.I.J.j.K.I L.m.M.+.N.s.$ D.D.D.D.D.D.D.4.9.x M.m.m.+.O.# }.D.D.D.D.D.T   ",
"  # P.P.P.P.P.P.P.P.P.P.P.P.P.! 4 t.e.e.m.Q.R.! P.P.P.P.P.P.P.# s ,.e.e.e.M.S.E.P.P.P.P.P.P.1.2 ",
"p # -.-.-.-.-.-.-.-.-.-.-.-.-.v r H.c.e.'.o F.-.-.-.-.-.-.-.-.I T.m.c.c.c.).> F._.-.-.-.-.-.i.p ",
"p P X T T T T T T T T T T T X P u u.u.c./.n P X T T T T T T T U.V.c.u.u.u.6.^ (.X T T T T X # p ",
"{ F.R.R.R.R.R.R.R.R.R.R.R.R.R.7 W.u.).X.Y.z.7 R.R.R.R.R.R.R.R.E.r.).).).).;.# 7 R.R.R.R.R.R.7 { ",
"Z Z.H H H H H H H H H H H H z.T o.).`.w ,  +H H H H H H H H H (..+`.`.`.'.++].H H H H H H H  +Z ",
"@+#+$+$+$+$+$+$+$+$+$+$+$+%+&+j.M.'.'.*+4 8.%+$+$+$+$+$+$+$+#+h =+g.'.'.w > { %+$+$+$+$+$+$+$+@+",
"] p 2 2 2 2 2 2 2 2 2 2 2 p + -+c.H.;+>+7 p 2 2 2 2 2 2 2 2 2 % ,+H.H.g.r.R A 2 2 2 2 2 2 2 p ] ",
"  B + + + + + + + + + + + + W '.H.;+l.[.H . + + + + + + + + + 2.b.;+;+H.'+a + + + + + + + + h.q ",
"  3 U.U.U.U.U.U.U.U.U.U.U.. t ).b.;+Q.i.z.U.U.U.U.U.U.U.U.z.z.s ;+w w ;+T.z.U.U.U.U.U.U.U.U..   ",
"  h.W W W W W W W W W W U # )+6.w k ' E.W W W W W W W W W W {.T.w 6.b..+!.U.W W W W W W W I .   ",
"  =.{.R.R.R.R.R.R.R.R.R.S g >+v.=+M U.7 R.R.R.R.R.R.R.R.R.R.# '+6.v.b.!+X F.R.R.R.R.R.R.R.7 3   ",
"  q 7 # # # # # # # # (.~+{+-+,+]+X P # # # # # # # # # # (.4.6.t.t.f.< U.( # # # # # # # R.p   ",
"    E.1.1.1.1.1.1.i.i.U.p.^+-+@.^ P i.i.i.i.1.1.i.i.i.i.i.{.[.;+,+l.q.$ P i.i.i.1.1.1.1.1.I     ",
"    Z v 4.a a 1.b G [.[./+a.; b m ! F !.[.i.1.v 2.j.[.9.1.U.]+t (+-+s v D.F G J.# v a a 4.=.    ",
"      _+4 -.-.[.>.:+'+<+[+l -.4.).W.'+y.H.q.(.4.j ~+y.6.T.R.*+r.~+}+,+/.T.'+y.|+~.1.-._.7 1+    ",
"      p 1._._.c H.].: i :+^+7 K.;+-.T i.g X.7 h K :.( f 2+}.3+<+s.u = 6.W T i.j R i._.h A       ",
"        E._._.> H.P.o.; Q.^+T K.;+_.a _.4+).7 h K :.a 1.~ T.)+<+V m = v.I a _.j R 1._.W         ",
"        Z ~ _.<.;+m % F.%.^+T K.;+h 4._.e X.7 h K :.F.7 B.5+)+<+~.6+6 v.I a _.j R 1.T p         ",
"          { T <.x S.y y N.{+# ~.t.2.@.7+l.=+R.v j ^.= 2.=+r.q.]+7 ( Y g.I i.4.j b ( 2           ",
"            p _+: < 8+!.9+m # ! w {+< B.4+a # X B.s.w.t.5+r.Q.9+I i.V u ].T i.M 4 3             ",
"              3 R.(.P P P (.~ 4 ;+i.R.P P (.~ ~ P R.k.*+r.k M P R.~ ~ (.(.~ ~ P 3               ",
"                p I F.F.F.F.F.a ;+_.].F.F.F.F.F.F.E.G .+r.y v W F.F.F.F.F.F.].=.                ",
"                  q H _+_+_+_+i.H.4._+_+_+_+_+_+_+_+ +}+}+_ E._+_+_+_+_+_+z.Z                   ",
"                    ] =.+ Z.Z. +a U.0+Z.Z.Z.Z.Z.Z.Z. +j.2.E.Z.Z.Z.Z.Z.0+=.q                     ",
"                        q p h.h.h.h.h.h.h.h.h.h.h.h.B U.6+h.h.h.h.h.2 q                         ",
"                          ] ] Z { { { { { { { { { { { { { { { { Z ] ]                           ",
"                                ] ] ] @ @ @ @+@+@+@+@ @ @ ] @ ]                                 ",
"                                        ] ] ] ] ] ] ] ]                                         "};
