/* XPM */
static char *nexuiz_xpm[] = {
/* columns rows colors chars-per-pixel */
"48 48 219 2 ",
"   c #010101",
".  c #050609",
"X  c #0B0B0D",
"o  c #060A0D",
"O  c #0D0D13",
"+  c #0F1316",
"@  c #0F161A",
"#  c #0F191D",
"$  c #121216",
"%  c #11131B",
"&  c #17191C",
"*  c #100F16",
"=  c #0E1B23",
"-  c #0F1C2B",
";  c #0D1721",
":  c #131721",
">  c #141B27",
",  c #0E1F30",
"<  c #201F2E",
"1  c #0E212B",
"2  c #14232C",
"3  c #0D2533",
"4  c #0E2936",
"5  c #0D2B3C",
"6  c #09273A",
"7  c #152838",
"8  c #1C333D",
"9  c #25272A",
"0  c #282739",
"q  c #35393A",
"w  c #092D42",
"e  c #182943",
"r  c #0D3144",
"t  c #0C354A",
"y  c #0C384E",
"u  c #193646",
"i  c #0A3A53",
"p  c #0A3E58",
"a  c #163354",
"s  c #173558",
"d  c #292D46",
"f  c #213442",
"g  c #29384C",
"h  c #34334D",
"j  c #383648",
"k  c #243251",
"l  c #2A3454",
"z  c #2B3759",
"x  c #363856",
"c  c #3A3A54",
"v  c #333958",
"b  c #383956",
"n  c #332F45",
"m  c #1A3E61",
"M  c #3B3F60",
"N  c #403A53",
"B  c #0B415D",
"V  c #07415F",
"C  c #144157",
"Z  c #2C4A58",
"A  c #35505E",
"S  c #074667",
"D  c #0A4564",
"F  c #06496C",
"G  c #0A4A6B",
"H  c #094E71",
"J  c #064D74",
"K  c #1E4B79",
"L  c #095176",
"P  c #08547B",
"I  c #055077",
"U  c #18526F",
"Y  c #27456C",
"T  c #3D4165",
"R  c #384666",
"E  c #29566C",
"W  c #215872",
"Q  c #365772",
"!  c #346179",
"~  c #474B4D",
"^  c #464858",
"/  c #4F5556",
"(  c #424966",
")  c #445F6C",
"_  c #515D61",
"`  c #586468",
"'  c #446574",
"]  c #526A75",
"[  c #6E7578",
"{  c #656E77",
"}  c #095A83",
"|  c #055D8D",
" . c #085C8A",
".. c #075882",
"X. c #055D9A",
"o. c #075D93",
"O. c #1E558B",
"+. c #255B99",
"@. c #255483",
"#. c #07608E",
"$. c #1A6288",
"%. c #066395",
"&. c #07669A",
"*. c #176A9C",
"=. c #2B6683",
"-. c #356B86",
";. c #296498",
":. c #3B7898",
">. c #387596",
",. c #075DA5",
"<. c #1A5EA8",
"1. c #066DA3",
"2. c #0668AB",
"3. c #0673AB",
"4. c #0966BD",
"5. c #0768B7",
"6. c #1C6AB3",
"7. c #0575B2",
"8. c #0579B5",
"9. c #047CBB",
"0. c #0674B7",
"q. c #186FA4",
"w. c #2264AB",
"e. c #2060A7",
"r. c #216DBE",
"t. c #3A73B0",
"y. c #426D83",
"u. c #5A7887",
"i. c #447A95",
"p. c #4F7593",
"a. c #6C7A83",
"s. c #0A69C4",
"d. c #086CC5",
"f. c #1268C5",
"g. c #0673CC",
"h. c #0575C2",
"j. c #1D74CC",
"k. c #0678D8",
"l. c #1877D9",
"z. c #126FD0",
"x. c #2376C9",
"c. c #087BE5",
"v. c #137AE4",
"b. c #0480BF",
"n. c #5B899F",
"m. c #628798",
"M. c #748893",
"N. c #5E98B9",
"B. c #618DA3",
"V. c #6494AC",
"C. c #7D9EB2",
"Z. c #6D8EAF",
"A. c #7FA5B5",
"S. c #0482C3",
"D. c #0386CA",
"F. c #0389CE",
"G. c #038DD3",
"H. c #028FD8",
"J. c #0392DB",
"K. c #0583EA",
"L. c #0396E2",
"P. c #0398E6",
"I. c #039BEA",
"U. c #0A83F4",
"Y. c #1682EF",
"T. c #5C94C0",
"R. c #6E9AC9",
"E. c #7EABC5",
"W. c #73A4D1",
"Q. c #8D989C",
"!. c #959EA3",
"~. c #8399B7",
"^. c #8CA3AD",
"/. c #84A5B5",
"(. c #91ADBA",
"). c #9FB4BF",
"_. c #8CB0C2",
"`. c #9ABAC9",
"'. c #96B2C0",
"]. c #95BED7",
"[. c #89BBD4",
"{. c #A0BBC9",
"}. c #9CC3D4",
"|. c #9BC6DB",
" X c #A8C2CD",
".X c #ABC8D6",
"XX c #B6CBD6",
"oX c #B7D1DD",
"OX c #B3CAD4",
"+X c #9DC1E4",
"@X c #A5CEE2",
"#X c #ACD1E3",
"$X c #ADD9EE",
"%X c #B4D2E1",
"&X c #BCD5E2",
"*X c #B7D9EB",
"=X c #A9D8F1",
"-X c #B1D7F1",
";X c #BDE2F4",
":X c #BBE5FB",
">X c #BDEAFF",
",X c #B5E2F8",
"<X c #C3DAE5",
"1X c #C1D9E5",
"2X c #C4E1EE",
"3X c #D4E3EA",
"4X c #C3EBFF",
"5X c #CBEDFE",
"6X c #C9E5F5",
"7X c #D4EBF6",
"8X c #D4EDFB",
"9X c #D1E6F1",
"0X c #CDF0FF",
"qX c #D4F1FF",
"wX c #DCF4FF",
"eX c #E2F5FF",
"rX c #E6F9FF",
"tX c #E9FAFF",
"yX c None",
/* pixels */
"yXyXyXyXyXyXyXyXyXyXyXyXyXyXyXyXyXyXyXyXyXyXyXyXyXyXyXyXyXyXyXyXyXyXyXyXyXyXyXyXyXyXyXyXyXyXyXyX",
"yXyXyXyXyXyXyXyXyXyXyXyXyXyXyXyXyXyXyXyXyXyXyXyXyXyXyXyXyXyXyXyXyXyXyXyXyXyXyXyXyXyXyXyXyXyXyXyX",
"yXyXyXyXyXyXyXyXyXyXyXyXyXyXyXyXyXyX5 7 - = = % # = = 1 3 5 yXyXyXyXyXyXyXyXyXyXyXyXyXyXyXyXyXyX",
"yXyXyXyXyXyXyXyXyXyXyXyXyXyXyX5 2 # @ $ % & % * % $ $ + $ $ = 1 5 yXyXyXyXyXyXyXyXyXyXyXyXyXyXyX",
"yXyXyXyXyXyXyXyXyXyXyXyXyX5 1 @ @ @ @ @ 0 N N j j n n : @ @ + + @ 1 4 yXyXyXyXyXyXyXyXyXyXyXyXyX",
"yXyXyXyXyXyXyXyXyXyXyXyX1 @ $ @ + @ @ % j & . * * 0 N 9 @ $ + @ @ @ # 2 yXyXyXyXyXyXyXyXyXyXyXyX",
"yXyXyXyXyXyXyXyXyXyX5 = # @ % @ @ @ @ % h $     . N 0 > @ @ @ @ # $ @ % = r yXyXyXyXyXyXyXyXyXyX",
"yXyXyXyXyXyXyXyXyX5 # @ @ # @ @ @ @ @ # h $     X c # # # @ @ @ @ @ @ # % # 4 yXyXyXyXyXyXyXyXyX",
"yXyXyXyXyXyXyXyX4 # # # # @ # # # % = : h $     X h : # # @ # # # # @ @ # @ # 4 yXyXyXyXyXyXyXyX",
"yXyXyXyXyXyXyX5 = # # # # # # # = # # ; x *     X N > ; # = # # # # # = = # # # 5 yXyXyXyXyXyXyX",
"yXyXyXyXyXyXr = # = # = = = = ; # = # = x *     X b > ; = = # = = # > ; = - = = 1 5 yXyXyXyXyXyX",
"yXyXyXyXyXyX1 = = = = = = = = ; = = = - x *     O b > - = = = = = = - l b , > = 1 1 yXyXyXyXyXyX",
"yXyXyXyXyX4 1 = 1 - - - - - , - - - - - b *     * v - - - - - - , - d h < M 7 - = = 4 yXyXyXyXyX",
"yXyXyXyXr 1 = = , g v v v v v v v v v v T o     * ( v v v z v v v v b X   * b k 1 1 1 u yXyXyXyX",
"yXyXyXyX4 - 1 1 , M b h h h h h h h h h d .     X h h h h h h h h h <       . h z , = 4 yXyXyXyX",
"yXyXyXt 1 1 1 1 , e k k k k k k k k k z M o     > M k k k k k k k z M .     * v z 3 1 1 t yXyXyX",
"yXyXyX5 1 1 1 8 8 f u f f f f f u 8 3 , b .     n R 8 f f 8 0 3 , e v   * & c R f u 8 2 5 yXyXyX",
"yXyXyX4 1 1 Z }.#X#XoX#X&X&XoXoXoXXX{.M.^     9 OX<X<X&X<X<X^.3 6 e v O ^.#X#X@X@X@X_.Z 4 yXyXyX",
"yXyXt 4 1 1 ) 2X5X5X0X0XqXqXwXqXwXwXeXeXOX9   ~ 7XeXeXwXwXwXXXu , s x ` 5X4X4X4X>X>X}.8 4 t yXyX",
"yXyXr 3 3 3 m.4X4X5X5X5X2X2X2X7XwXwXwXwXeXQ.  [ tXeXeXwXwXeX2XZ w s ( {.5X4X4X4X>X>XA.4 4 t yXyX",
"yXyXr 4 4 4 A.4X4X4X0X.XA Z Z ! XXwXeXeXeXQ.X !.tXeXeXeXeXwX7X) w s ~.5X5X5X4X4X>X>Xm.1 4 5 yXyX",
"yXyXr 5 6 u }.4X5X5X0X/.6 6 6 r '.eXeXeXeX` X {.tXeXeXwXwXwXwXu.w Q *X5X5X4X4X4X>X,X! 6 5 r yXyX",
"yXyXr 5 5 Z *X4X4X4X0X(.] u.u.(.7XwXeXeX!.X 9 3XrXeXrXoX3XwXwXC.t C.qX0X*X&X4X4X>X$XZ 5 5 5 yXyX",
"yXyXt 5 5 ' >X4X4X0X0X0X8XqXqXwXwXeX9Xa.X   ~ tXtXeXrX^.oXeXwX(.! 2XqX0X^.oX4X4X>X|.u r r t yXyX",
"yXyXt r 5 m.>X4X4X5X5XqXqXqXqXwXwXwX3X{     [ tXeXrXeXu..XeXwXoX`.qXqX.X` ;X4X4X4X/.r y r t yXyX",
"yXyXy t t A.4X4X4X5X2X`.`.`.&XwXwXwXeX3Xq   !.rXrXeX9X! (.eXwX8XqXqX0X{ ` 4X4X>X>Xn.t y y y yXyX",
"yXyXi y C |.>X4X5X5X_.p B B y.6XwXwXeXeX/ % XXrXeXeX<XE C.wXqXqXqXqX X& Q.0X4X>X:Xy.y a i i yXyX",
"yXyXB y E $X>X4X4X5XB.D G D ! 6XwXwXeX3XZ ( 8XeXeXeX.XG n.wXwXqXqX6X` X }.4X>X4X$XE p p p p yXyX",
"yXyXB i y.:X>X>X5X4Xy.S F S i.8X8XwXwX<Xh Z.8XeXeXeX_.F i.8XqXqX8X{.O 9 *X4X4X>X|.U B B B B yXyX",
"yXyXB B n.,X,X:X-X@XW J J J B.qX8XwXwXOX+.R.8X8X8X8XV.I -.2X7X5X4Xp.  ^ 6X4X4X4XE.G D B B D yXyX",
"yXyXyXB W -.! -.-.-.H L P P E.qXqXqXwX+X<.*.:.:.:.:.$.} ..>.>.>.t.Y   m.0X>X>X>XV.S F G D yXyXyX",
"yXyXyXD G F F J J H P ....o.].qX8XqXqXW.,.%.| | o.o.%.o.o.| | X.6.a   ^.0X>X>X:X:.F H G G yXyXyX",
"yXyXyXG H H L L P ..}  .X.w.-X8XqXqXqXN.X.&.%.2.4.d.s.s.s.4.4.s.r.@ % .X4X4X>X$X=.I L L G yXyXyX",
"yXyXyXyXJ P P ..} }  .,.f.t.`..X-X=X-XN.%.&.1.4.l.w.+.<.e.<.w.w.a   9 `..X=X=X[.P ..P P yXyXyXyX",
"yXyXyXyXP P ..} } o.,.f.+.% > ;.j.6.q.*.1.1.1.h.l.x.O.s # . . .     . $ Y x.*.$.} } P P yXyXyXyX",
"yXyXyXyXyX} }  .X.5.j.+.O 7 w.v.h.3.1.3.3.3.3.0.g.k.c.Y.j.a           o e.s.&.#.#. . .yXyXyXyXyX",
"yXyXyXyXyXyX .&.4.j.K ; K l.k.s.3.3.7.7.7.7.7.7.0.9.9.g.c.j.@       o O.l.5.&.&.%.#.yXyXyXyXyXyX",
"yXyXyXyXyXyXo.2.l.@.m r.c.g.0.7.7.8.8.8.8.9.b.9.9.9.9.9.k.Y.5 o # a 6.v.h.1.&.&.%.%.yXyXyXyXyXyX",
"yXyXyXyXyXyXyX2.z.j.v.k.h.7.0.7.8.8.b.b.b.b.S.S.h.b.S.S.H.U.l.j.Y.v.c.g.0.3.1.1.*.yXyXyXyXyXyXyX",
"yXyXyXyXyXyXyXyXs.d.h.0.7.7.9.9.b.b.b.S.S.D.D.S.F.D.D.S.D.c.U.K.G.k.h.9.7.3.3.1.yXyXyXyXyXyXyXyX",
"yXyXyXyXyXyXyXyXyX7.7.7.8.9.b.b.S.S.D.F.F.F.F.G.F.F.F.F.F.F.D.D.S.b.b.b.8.7.7.yXyXyXyXyXyXyXyXyX",
"yXyXyXyXyXyXyXyXyXyX7.9.9.b.S.S.D.D.F.F.G.G.G.G.H.G.G.G.G.F.F.D.D.S.b.b.b.8.yXyXyXyXyXyXyXyXyXyX",
"yXyXyXyXyXyXyXyXyXyXyXyXS.S.D.D.F.G.G.G.G.J.J.J.J.J.H.H.H.H.G.G.F.D.D.S.yXyXyXyXyXyXyXyXyXyXyXyX",
"yXyXyXyXyXyXyXyXyXyXyXyXyXS.D.G.G.G.J.J.J.J.L.L.L.L.L.L.J.J.J.G.G.G.D.yXyXyXyXyXyXyXyXyXyXyXyXyX",
"yXyXyXyXyXyXyXyXyXyXyXyXyXyXyXG.G.J.J.L.L.L.P.P.P.I.P.P.L.J.J.J.G.yXyXyXyXyXyXyXyXyXyXyXyXyXyXyX",
"yXyXyXyXyXyXyXyXyXyXyXyXyXyXyXyXyXyXL.L.P.I.I.I.I.I.I.P.P.L.yXyXyXyXyXyXyXyXyXyXyXyXyXyXyXyXyXyX",
"yXyXyXyXyXyXyXyXyXyXyXyXyXyXyXyXyXyXyXyXyXyXyXyXyXyXyXyXyXyXyXyXyXyXyXyXyXyXyXyXyXyXyXyXyXyXyXyX",
"yXyXyXyXyXyXyXyXyXyXyXyXyXyXyXyXyXyXyXyXyXyXyXyXyXyXyXyXyXyXyXyXyXyXyXyXyXyXyXyXyXyXyXyXyXyXyXyX"
};
