/* XPM */
static char *rexuiz_xpm[] = {
/* columns rows colors chars-per-pixel */
"48 48 190 2 ",
"   c #0F1416",
".  c #0F161A",
"X  c #0F191D",
"o  c #0E1C23",
"O  c #0E1F28",
"+  c #101E25",
"@  c #0E222C",
"#  c #10232C",
"$  c #102027",
"%  c #0E2632",
"&  c #0E2836",
"*  c #0D2C3B",
"=  c #102631",
"-  c #112A36",
";  c #102F3D",
":  c #10303F",
">  c #0D2F40",
",  c #0D3244",
"<  c #0C364B",
"1  c #0D384E",
"2  c #113241",
"3  c #113648",
"4  c #11394C",
"5  c #0C3B54",
"6  c #0B3E59",
"7  c #0B415D",
"8  c #0F4057",
"9  c #104159",
"0  c #16455B",
"q  c #274A5A",
"w  c #0B4563",
"e  c #0D4966",
"r  c #0A4A6B",
"t  c #134963",
"y  c #134D69",
"u  c #1B4F67",
"i  c #1C536D",
"p  c #094E72",
"a  c #0B5175",
"s  c #09547B",
"d  c #0D587D",
"f  c #105474",
"g  c #185572",
"h  c #195B7B",
"j  c #25566E",
"k  c #2B5C74",
"l  c #1E607F",
"z  c #2A627D",
"x  c #38677C",
"c  c #486979",
"v  c #095780",
"b  c #095A84",
"n  c #075E8B",
"m  c #085D89",
"M  c #135E82",
"N  c #07608E",
"B  c #0A618D",
"V  c #1A668B",
"C  c #076493",
"Z  c #096492",
"A  c #0B6896",
"S  c #07699C",
"D  c #0A6B9C",
"F  c #076798",
"G  c #196B93",
"H  c #1F729A",
"J  c #3B6E86",
"K  c #3E738D",
"L  c #206D92",
"P  c #2B7395",
"I  c #29779D",
"U  c #357493",
"Y  c #066DA2",
"T  c #096FA2",
"R  c #0670A7",
"E  c #0A72A6",
"W  c #0674AC",
"Q  c #0975AB",
"!  c #0978AF",
"~  c #1375A6",
"^  c #1A7BAB",
"/  c #1F7BA6",
"(  c #0577B1",
")  c #067AB5",
"_  c #0A7AB2",
"`  c #057DBB",
"'  c #087FBB",
"]  c #157FB3",
"[  c #297CA4",
"{  c #4A788E",
"}  c #43738A",
"|  c #507283",
" . c #627C87",
".. c #0680BE",
"X. c #0A81BD",
"o. c #1482B8",
"O. c #1C87BC",
"+. c #2280AD",
"@. c #3781A4",
"#. c #3B81A3",
"$. c #2484B4",
"%. c #2489BA",
"&. c #338CB7",
"*. c #3B92BC",
"=. c #47819D",
"-. c #688C9D",
";. c #4889A8",
":. c #588BA4",
">. c #5290AD",
",. c #4C98BE",
"<. c #5899B8",
"1. c #6C90A1",
"2. c #669DB7",
"3. c #709EB4",
"4. c #6BA2BC",
"5. c #0482C3",
"6. c #0985C3",
"7. c #0486C9",
"8. c #0489CD",
"9. c #0B8DCE",
"0. c #1489C3",
"q. c #1C8DC6",
"w. c #138ECC",
"e. c #1390CE",
"r. c #038DD4",
"t. c #028FD8",
"y. c #0392DC",
"u. c #2B95C9",
"i. c #2691C6",
"p. c #3597C7",
"a. c #2B99D0",
"s. c #3DA3D6",
"d. c #0396E2",
"f. c #0399E6",
"g. c #039BEA",
"h. c #449BC5",
"j. c #5DA7CB",
"k. c #5EADD4",
"l. c #56ADD8",
"z. c #51A8D3",
"x. c #66A8C8",
"c. c #7BACC3",
"v. c #77ACC6",
"b. c #68B0D4",
"n. c #7ABBDB",
"m. c #73B7D8",
"M. c #73BEE3",
"N. c #64BAE4",
"B. c #7CC5E8",
"V. c #9BB3BF",
"C. c #81B6CF",
"Z. c #9BBCCC",
"A. c #84BCD7",
"S. c #98BFD2",
"D. c #9DC3D5",
"F. c #96C3D8",
"G. c #A6C7D7",
"H. c #B6D1DD",
"J. c #84C6E6",
"K. c #91C7E1",
"L. c #94CBE5",
"P. c #9ED2EB",
"I. c #ACD1E4",
"U. c #A3D3EA",
"Y. c #ACD6EA",
"T. c #AEDAEF",
"R. c #A5D1E7",
"E. c #BAD9E7",
"W. c #B5DAEB",
"Q. c #BBDDED",
"!. c #B1D1E0",
"~. c #ADDAF0",
"^. c #B5DEF2",
"/. c #BEE1F2",
"(. c #C5DEEA",
"). c #C1D9E4",
"_. c #C5E1EE",
"`. c #CAE1EC",
"'. c #D1E6EF",
"]. c #CAE6F4",
"[. c #CAE7F5",
"{. c #D3EAF4",
"}. c #DBEDF6",
"|. c #D4EDF9",
" X c #DAEFF8",
".X c #DDF1FB",
"XX c #E4F5FD",
"oX c #E8F7FE",
"OX c #EBF9FF",
"+X c None",
/* pixels */
"+X+X+X+X+X+X+X+X+X+X+X+X+X+X+X+X+X+X+X> ; = # # # = % - > +X+X+X+X+X+X+X+X+X+X+X+X+X+X+X+X+X+X+X",
"+X+X+X+X+X+X+X+X+X+X+X+X+X+X+X+X& # + X .               . + @ - +X+X+X+X+X+X+X+X+X+X+X+X+X+X+X+X",
"+X+X+X+X+X+X+X+X+X+X+X+X+X2 % +       X + + + + X .             o @ 2 +X+X+X+X+X+X+X+X+X+X+X+X+X",
"+X+X+X+X+X+X+X+X+X+X+X3 % X       . X + - 2 2 ; - $ + .     .     . X = 3 +X+X+X+X+X+X+X+X+X+X+X",
"+X+X+X+X+X+X+X+X+X+X* + .   .   . . + #  .V.1.x 0 2 # + . .   . . .   . o ; +X+X+X+X+X+X+X+X+X+X",
"+X+X+X+X+X+X+X+X+X% X . .   X   . . + - | }.OX'.Z.} 4 = + X . . . . . X . X - +X+X+X+X+X+X+X+X+X",
"+X+X+X+X+X+X+X+X@ . X   X X X X . X + - 0 Z.OXOXOX'.{ 3 = + + + $ $ + + + X X # +X+X+X+X+X+X+X+X",
"+X+X+X+X+X+X+X@ X X X X X X X X X X + = 9 :.XXOXOXOXG.i 3 ; ; 2 , 2 , ; - # $ X @ +X+X+X+X+X+X+X",
"+X+X+X+X+X+X% X X X X X X X X X X X + - 8 =. XOXOXOX`.P f u i z J } J k 0 1 : - + & +X+X+X+X+X+X",
"+X+X+X+X+X& o X o o o o X o o $ @ # - 4 y 2.oXOXOXOXXXC.c.S.H.(.{.}.}.(.Z.:.j 4 - # & +X+X+X+X+X",
"+X+X+X+X> o o o o o o o $ @ # - ; 3 5 y P I.OXOXOXOXOXoXOXOXOXOXOXOXOXOXOXoXH.{ 4 - O > +X+X+X+X",
"+X+X+X< % o o o o o O @ - : 1 8 y z { C.E.XXOXOXOXOXOXOXOXOXOXOXOXOXOXoXOXOXOX).k > # % 1 +X+X+X",
"+X+X+X; o o o O o @ % * 1 u K 3.G.(..XOXOXOXOXoXoXOXOXOXOXOXOXOXOXOXOXOXoXOXoXXX{ < = o & +X+X+X",
"+X+X< @ O @ O O O @ & q -.G.{.OXOXOXOXoXoXOXOXOXOXOXOXOXOXOXOXOXOXOXoXOXOXoXoX}.} < % @ @ < +X+X",
"+X+X* @ @ O @ O @ % & c H.XXOXOXOXOXOXOXoXOXOXoXoXOXOXOXoXXX].E.Q.oXOXOXOXoXOX(.z < & @ @ * +X+X",
"+X+X& @ @ @ @ @ @ % & < j -.G.'.oXOXOXoXOXOXoXOXOXOXXXH.4.;.U L *.{.OXoXOXOXOXD.i 3 % @ @ & +X+X",
"+X, % @ % O % @ % % & : 1 8 g U 4.I.XXXXoXOXOXOXXXF.;.l y 7 t f @.{.OXoXOXOXOX2.0 , % @ @ % , +X",
"+X> % % % % % % % % % & ; , 1 7 f I Y.OXOXOXoXOXD.V e 8 1 , 5 y >.XXOXOXOXOX{.U 6 * % % % % * +X",
"+X* % & % % & % % % & & & * : < y V I.OXOXoXoX|.#.f 5 3 , , 8 a c.OXOXoXoXOXG.g 1 * & % & & * +X",
"5 & % & & & & & & & & * * * : < w P `.OXOXOXOXG.V 7 1 , 1 8 y L !.OXOXOXOX.X:.w < * & & & & & 1 ",
"< & * & * * * * * * * * : , > 1 e >.XXOXOXOXOXv.d t 8 8 e a L C.XXOXOXOXoXS.h 6 , * * & & * * < ",
"< & * * * * * > > , , < , , < 7 d c.OXOXOXOX|.;.d a a B P <.I.oXOXoXOXOXE.U e 5 , : * * * * * < ",
"< > > > > > > , , , < , < < 5 e V I.OXOXOXOXW./ H @.2.F._.XXOXOXoXOXOXE.U f 6 1 , , , > > > * , ",
"< > > > , , , < < < < 1 1 5 8 a @.{.OXOXOXOXn.+.F.{.oXOXOXOXOXOXOXXXS.I f e 5 < < < , , , , , < ",
"< , , < < < < < 1 5 5 5 5 6 e d x.oXOXOXOX.Xh.,..XOXOXOXOXOXOXXX!.<.V s e 6 5 5 5 < < < < , < < ",
"1 < < < < 5 5 5 5 5 5 6 6 w a B F.OXoXoXOXQ.O.&.{.OXoXOXoXOXQ.j./ M p e w 6 6 6 5 5 5 < 1 < < 5 ",
"5 < 1 1 5 6 5 6 6 7 7 7 w r s [ ].OXoXoXOXF.~ +.R.OXOXOXOX|.h.D b a r w w 7 7 6 6 6 6 5 5 1 1 5 ",
"6 5 5 6 6 6 6 6 7 w w w r p N ,.XXOXoXoX X,.D D b.OXOXOXOX X*.A v p r e w w w w 7 6 6 6 6 6 6 6 ",
"6 6 6 6 6 7 w w w w r r p d Z J.OXOXOXOXR.^ Z A &.[.OXOXOXoXb.A b p p p r r r w w w w 7 6 6 6 6 ",
"+X7 6 7 w w w w r r p p f B +.Q.OXOXOXXXj.D B Z E F.OXOXOXOXR.^ n s a p p p p r p w w w w w 7 +X",
"+Xw w w w w p p r p a s B D j.XXOXoXOXR.+.F B B D h. XOXOXOX|.*.S m s s s p p p p p p w e w w +X",
"+Xw w r p r p p a s s b A $.^.OXOXOX Xh.E A Z B D o.P.OXOXOXoXn.R C v v v v s s p p p p r e e +X",
"+X+Xp p p p s s s s b Z E m.oXOXOXoXn._ D F C C S E h..XOXOXOX/.%.D Z B v v s s s s a p p p +X+X",
"+X+Xp p p s s v v b Z Y p.].OXOXOXP.O.E D D F F Y E o.J.OXoXOXXXk.! D N N B N b v s s s a a +X+X",
"+X+Xp s s s v b m C D ] L.OXOXOX~.i.! R Y Y Y Y Y E ) u./.OXOXOXW.O.E F N N N N m v s s s a +X+X",
"+X+X+Xs v b b m N S ! k.XXOXOXT.p.) ! R Y R R R W W _ X.z..XOXOXXXl._ E S C N N N m m b v +X+X+X",
"+X+X+Xv b m n Z D E p.[.OXoXP.u.` ( W W W ( W W W W ( ` 6.M.XXOXOX/.q.( Y S F C C n n m b +X+X+X",
"+X+X+X+Xm n C D E O.P.OX XJ.q.` ( ( ( ( ( ( ( ( ) ) ) ` X.w.J.XXoXXXB.X.Q R S S F C Z n +X+X+X+X",
"+X+X+X+X+XC F T _ n.OX[.l.0.' ) ( ( ` ` ` ` ` ` ` ` ` ` ..6.e.B..XoX[.s...Q R S F F C +X+X+X+X+X",
"+X+X+X+X+X+XT E k. XU.p.6.' ` ` ` ` ` ` ` 5.5.5.5.5.` 5.5.5.6.e.B.[.OX~.O.! R R Y S +X+X+X+X+X+X",
"+X+X+X+X+X+X+X%.K.b.0.' ' ' ` ` ' 5.5.5.5.7.7.7.5.7.5.7.5.5.6.9.9.s.P.{.k.) ! W Y +X+X+X+X+X+X+X",
"+X+X+X+X+X+X+X+Xo.` ' ' ` ` ` 5.5.5.5.7.7.7.7.7.7.r.7.7.7.7.7.7.8.8.e.a.q.) ( ( +X+X+X+X+X+X+X+X",
"+X+X+X+X+X+X+X+X+X) ' ' ` 5.5.7.7.7.8.8.r.r.r.r.t.r.r.r.r.8.8.8.8.7.7.5.5...) +X+X+X+X+X+X+X+X+X",
"+X+X+X+X+X+X+X+X+X+X) ' 5.5.7.7.8.r.r.r.r.t.t.t.t.t.t.t.r.r.r.8.8.8.7.7.5...+X+X+X+X+X+X+X+X+X+X",
"+X+X+X+X+X+X+X+X+X+X+X' 5.7.7.r.r.r.t.y.t.y.y.d.d.d.y.t.y.y.r.r.r.r.7.7.6.+X+X+X+X+X+X+X+X+X+X+X",
"+X+X+X+X+X+X+X+X+X+X+X+X+X7.8.r.r.y.y.y.d.d.d.d.d.d.d.d.d.y.y.y.r.r.9.+X+X+X+X+X+X+X+X+X+X+X+X+X",
"+X+X+X+X+X+X+X+X+X+X+X+X+X+X+X+Xt.y.d.d.d.f.g.g.g.g.g.d.f.d.y.y.+X+X+X+X+X+X+X+X+X+X+X+X+X+X+X+X",
"+X+X+X+X+X+X+X+X+X+X+X+X+X+X+X+X+X+X+Xf.d.g.g.g.g.g.g.g.f.+X+X+X+X+X+X+X+X+X+X+X+X+X+X+X+X+X+X+X"
};
