/* XPM */
static char *rexuiz_xpm[] = {
/* columns rows colors chars-per-pixel */
"48 48 88 1 ",
"  c #0F161A",
". c #0E1C24",
"X c #101E25",
"o c #0F212B",
"O c #0E222C",
"+ c #0D2937",
"@ c #102A37",
"# c #0F2531",
"$ c #0F2937",
"% c #0E2F40",
"& c #0C2F40",
"* c #0D3549",
"= c #113647",
"- c #0C3C55",
"; c #0C3C55",
": c #0B3E58",
"> c #0C415D",
", c #13435A",
"< c #0B4867",
"1 c #144C67",
"2 c #094E72",
"3 c #0A5379",
"4 c #135474",
"5 c #2D637D",
"6 c #205975",
"7 c #0C394F",
"8 c #0E3448",
"9 c #0F2C3C",
"0 c #0A4F73",
"q c #0884C6",
"w c #486979",
"e c #095B85",
"r c #0C628D",
"t c #09618D",
"y c #096898",
"u c #1B6A90",
"i c #307392",
"p c #076DA2",
"a c #0873AA",
"s c #067BB7",
"d c #117DB4",
"f c #0F88C7",
"g c #47748A",
"h c #627C87",
"j c #0694DF",
"k c #0F83BD",
"l c #3187B0",
"z c #518FAD",
"x c #699BB2",
"c c #588CA5",
"v c #0485C7",
"b c #038DD4",
"n c #0292DC",
"m c #1190D0",
"M c #2D95C9",
"N c #0298E5",
"B c #3DA3D6",
"V c #449BC5",
"C c #59ABD3",
"Z c #73B0CE",
"A c #6EBDE3",
"S c #7CC5E8",
"D c #90BCD1",
"F c #98C3D7",
"G c #ACCBD9",
"H c #93CBE7",
"J c #AAD3E7",
"K c #B8DAEA",
"L c #B1DCF1",
"P c #BEE1F2",
"I c #C4DDE8",
"U c #D6ECF6",
"Y c #DDF1FB",
"T c #CAE5F2",
"R c #EAF8FF",
"E c #9BB3BF",
"W c #0F384E",
"Q c #0E384E",
"! c #0A6DA1",
"~ c #0B4D6F",
"^ c #0872A9",
"/ c #0791DB",
"( c #1881B6",
") c #0D435E",
"_ c #0D5479",
"` c None",
"' c #0A7CB9",
"] c #098BD1",
/* pixels */
"````````````````_)Q9%$OXOOo%9W)_````````````````",
"``````````````)Q9o            o%Q_``````````````",
"````````````)8o     XXXX         o8)````````````",
"``````````_QoX     X@@=@@X        Xo8_``````````",
"`````````)%X       @hEcw,=OX         %)`````````",
"````````Wo        X@wYRUEg=@         X$W````````",
"```````QoX        X@,ERRRUg@@O  OXXOX  oQ```````",
"``````QO  X       X@,cRRRRG5=@@@@==@@OXXOQ``````",
"`````W$.  .   X   X@>gRRRRIi3115ig55,=@@X$Q`````",
"````)#......XXXXOO@&2xRRRRRDZFGTUYYIEc6=@+#)````",
"```_%.......XX@@@==1iJRRRRRRRRRRRRRRRRKg=@O9_```",
"```8O....XXX@===1ucZKRRRRRRRRRRRRRRRRRRI5&O+8```",
"``)#OOXX.X@@*1gxGIRRRRRRRRRRRRRRRRRRRRRRg*OX#)``",
"``8OXOOXX+@,cGURRRRRRRRRRRRRRRRRRRRRRRRYg*+O+8``",
"`)#OOOXOOO+wIRRRRRRRRRRRRRRRRUUIIRRRRRRI5=+XO#)`",
"`Q+OOOOOO++*6cGIRRRRRRRRRRUGZciilURRRRRF1*+OX+Q`",
"_9OO+OOOOO+**,4ixJYRRRRRRFz31,>3iYRRRRRx,=@OOO9_",
")$+OOO+O++O+@=,>4iJRRRRRFu<,,=,1cYRRRRUi-@+O+O&)",
"Q&+++++++++++@&*<uJRRRRTl<,*+*>1ZRRRRRF4-++O++*W",
"9+O+++++++++&++*>iTRRRRG5>*+->1uKRRRRRc1=++++++9",
"%+++++&+++&&+&*-1zRRRRRZ3,,><3uZRRRRRFe-*++++++%",
";*+&++&&+&&****>3ZRRRRUlt32tixJRRRRRIi1-*&&+&++;",
"*+&&+*&*&*****-<uGRRRRKlulxFPRRRRRRKg3>**&&&&&&*",
"*&&*&******-*-,4lURRRRZlFURRRRRRRYDi2<-******&&*",
"-&******------<eZRRRRYVVYRRRRRRYKVu31----*******",
"*****-------->3yFRRRRLllURRRRRICue1<<------*-**-",
";--*----->>><<3iPRRRRFalJRRRRYlde22<>>>>->---*-;",
"%<---->>>><<<2tVYRRRYlpuZRRRRYlue2<<<<<>>>>>>-<:",
"9-->>>><<<<<23uZRRRRJuyylTRRRRZpe2222<<<<<>>>>-9",
"W>>><<<<<2223ylKRRRRCytyaHRRRRJaee22222<<<<<<>>W",
")<><<<<22223tpCRRRRJkuttpVYRRRUlyee2e22222<<<<<)",
"_7<<<222333eylPRRRUVayttukJRRRRSptee2e2e22222e7_",
"`Qee22e2eeetdZRRRRAduyyyysVURRRLlyyeeee3333222W`",
"`);2222eeetpMURRRHkapyyyppkHRRRRCsytteeeee332>)`",
"``8t2eeeetpsHRRRLMspppppyasMPRRRKmayyetteee3p8``",
"``)reeeeeyaCYRRLMsapaappaassCURRRCsaytyteeeer)``",
"```8ptttyaMTRRHMssaaaaaaasssvARRRPmaayyypryyQ```",
"```_:ttpakJRYHmssaasssssassssmSRRRAkaayyyyyr_```",
"````)fspdDRTCmsssssssskkssssvvmHYRUBkaaypyr)````",
"`````WpaCUJBkvsssssvskkkvvvskvvmATRLksaparW`````",
"``````QMHCmvsssskkkkbkkvvvvvvvvmNBJTCssvpW``````",
"``````_^dsdvsvsvkvbkvbbvbvbvvvvvmmmmmvsvQ```````",
"```````_Wmbdssvvvvmnbbbbbbbbbbvbbvvvvsd~````````",
"`````````)rvvvvvmbnmbnbnnbbbbbbbbvvvdr)`````````",
"```````````jfsvvNNNnnnnnnnnnNNNbbnbfj```````````",
"````````````)jfbNNNNnNNNNNNNNNNnbfj)````````````",
"``````````````_^jNNNNNNNnnNNNNNj()``````````````",
"````````````````_)^qjmnNNmkkj^)_````````````````"
};
