/* XPM */
static char * vecxis_xpm[] = {
"48 48 91 1",
" 	c None",
".	c #161312",
"+	c #161A1E",
"@	c #201E1B",
"#	c #242528",
"$	c #1F2730",
"%	c #292623",
"&	c #2F2C2B",
"*	c #262E37",
"=	c #322D27",
"-	c #323235",
";	c #2A3540",
">	c #2E353B",
",	c #3B352F",
"'	c #393735",
")	c #2F3B48",
"!	c #3C3C3F",
"~	c #373D44",
"{	c #3E3D3B",
"]	c #443E38",
"^	c #36424F",
"/	c #494036",
"(	c #3E4854",
"_	c #4C4640",
":	c #41484F",
"<	c #3B495A",
"[	c #46484A",
"}	c #52493E",
"|	c #444F5A",
"1	c #534D47",
"2	c #485057",
"3	c #4E4F52",
"4	c #5A534D",
"5	c #5C5348",
"6	c #595554",
"7	c #4A5867",
"8	c #51585F",
"9	c #605953",
"0	c #62594E",
"a	c #5A5A5D",
"b	c #665F58",
"c	c #705F50",
"d	c #656160",
"e	c #6B6156",
"f	c #616367",
"g	c #53687D",
"h	c #6D655F",
"i	c #716D69",
"j	c #7A6F64",
"k	c #816F60",
"l	c #73767C",
"m	c #637A90",
"n	c #6A8097",
"o	c #8F7A66",
"p	c #8C7E70",
"q	c #967D64",
"r	c #868885",
"s	c #A98B6E",
"t	c #9D8E89",
"u	c #A08E81",
"v	c #B59576",
"w	c #AB9C90",
"x	c #B49C87",
"y	c #A69F9C",
"z	c #FFA03F",
"A	c #BEADA2",
"B	c #B3B5B2",
"C	c #FFAA45",
"D	c #FFB248",
"E	c #FFB354",
"F	c #FFB846",
"G	c #FFB851",
"H	c #BBC3C1",
"I	c #FFBD48",
"J	c #FFC152",
"K	c #FFC25B",
"L	c #FFCB5E",
"M	c #FFCB67",
"N	c #FED162",
"O	c #B2DDFE",
"P	c #FFD56E",
"Q	c #FED576",
"R	c #FEDE7A",
"S	c #FEDF71",
"T	c #B0EBFD",
"U	c #B6F1FD",
"V	c #FEE982",
"W	c #FCEC73",
"X	c #FFED96",
"Y	c #D7F4FE",
"Z	c #EEFBFC",
"                 77            m                ",
"              g<*$*           ~^<gn             ",
"           n7<$$*$*           ~<;*;77m          ",
"         77)*;;****           -);));;*7g        ",
"       g);$)^^^));-           !);)^<<)$;<g      ",
"     7|;;^(<^^^);;!           [<;<<<((^^)*^<    ",
"    ^;>|<||((());)_           6<^)^||(^^(|>;^   ",
"   *)>^|77|(;>(^2iq           suf7|>;||(||()>*  ",
"   $>>^|7|>(^3dosv             svspd|(>~(||(>>  ",
"   *~)(|7:76kosv                 ssqod7~|||(>*  ",
"   *>:228~cqs                       qqc(2:|^~*  ",
"   $~::23~k                           k:32::~$  ",
"   $!:888~j                           k:888:~$  ",
"   #[288f!k                           k2888:~#  ",
"   #:888f[o                           k8f882~+  ",
"    32fff[q                           p8ff82!+  ",
"    :3ffd3q                           p3ffa8!.  ",
"    ~[aaf3q   QEEGJGS       WJEGGKQ   p3fad[!   ",
"    ![aff6k   QDCCzCJ       IDCCCGQ  xj[afa[!   ",
"    !!3af6j    PDzCCCW     WFCFIDK   xi3aaa!!   ",
"    !!aaa6hu   QCCCCCL     SDCGJDQ   xh3da3--   ",
"    !!6dddhu    PJCGCKS   WLDGDNM    xh6dda--   ",
"    !{dddb9u    RLGKJKW   SJGKDNP    xd6id6'&   ",
"    -'6ddb9u     LKGJJJ   NGJKKK     x91id6'&   ",
"    -'6ddb9u     MGKGKJS VGLLKKM     u61dd6'#   ",
"    #'6hhbbu      KKJLLSSSNSLKL      ub9hb6'#   ",
"    @'6bhhhu      QKKNLNVPSNKLM      u99h96{%   ",
"    @'69hbbu       KNPPPPSRPLLQ      u9bh96{%   ",
"    @{[bh9bw       PSVQRRVVRPS       ubeb94{%   ",
"    .'_b99ew       RSVVRVVRSSS       t4ehb_'@   ",
"    .{]bheey        VVVXXXVVV        y9e9b1{@   ",
"     {{9be4y                         y1je91'    ",
"     {]9ee1yH                        y}je91'    ",
"     &,4ee]rH         YZZZY         Hr_e44]'    ",
"     %&_40}0pA        OTUUO        Aw0_41_'&    ",
"     %&_150_}0w        OTO        Ap5]55__&%    ",
"     @&,_5ee}}4t        O        yi],55}]&%.    ",
"      %%]_000}/5tA             wwj,]}5}_]&&     ",
"       &&_505e0/0lA           Aye,//]]]]=%      ",
"        ,=_45050/0lB         Hr5//]]]],==       ",
"         ,],__}00}5i         r},}]]]]],,        ",
"          =],]]_55}0         4,}}]]]=,=         ",
"           %]=,__}}4         1,]]_],]=          ",
"            @,=,]]]_         _=_]]=]@           ",
"              =,,,]]         ]%,=],             ",
"               %=,,,         ,%==%              ",
"                 %,,         ,=@                ",
"                   @         @                  "};
